<?xml version="1.0" encoding="UTF-8" standalone="no"?>
<!DOCTYPE svg PUBLIC "-//W3C//DTD SVG 1.1//EN"
 "http://www.w3.org/Graphics/SVG/1.1/DTD/svg11.dtd">
<!-- Generated by graphviz version 15.1.0 (20260618.0150)
 -->
<!-- Title: Lecture8Diagram Pages: 1 -->
<svg width="1273pt" height="713pt"
 viewBox="0.00 0.00 1273.00 713.00" xmlns="http://www.w3.org/2000/svg" xmlns:xlink="http://www.w3.org/1999/xlink">
<g id="graph0" class="graph" transform="scale(1 1) rotate(0) translate(18 694.81)">
<title>Lecture8Diagram</title>
<g id="clust1" class="cluster">
<title>cluster_write</title>
<path fill="#e7f3f0" stroke="#c0e0d8" stroke-width="1.8" d="M20,-530.02C20,-530.02 888,-530.02 888,-530.02 894,-530.02 900,-536.02 900,-542.02 900,-542.02 900,-656.81 900,-656.81 900,-662.81 894,-668.81 888,-668.81 888,-668.81 20,-668.81 20,-668.81 14,-668.81 8,-662.81 8,-656.81 8,-656.81 8,-542.02 8,-542.02 8,-536.02 14,-530.02 20,-530.02"/>
<text xml:space="preserve" text-anchor="middle" x="248.5" y="-649.61" font-family="Helvetica Neue" font-size="16.00" fill="#0e7f66">1 · WRITE PATH — a document change becomes a durable event</text>
</g>
<g id="clust3" class="cluster">
<title>cluster_fanout</title>
<path fill="#fbfbfa" stroke="#d9dcd8" stroke-width="1.6" d="M376,-393.86C376,-393.86 1217,-393.86 1217,-393.86 1223,-393.86 1229,-399.86 1229,-405.86 1229,-405.86 1229,-499.02 1229,-499.02 1229,-505.02 1223,-511.02 1217,-511.02 1217,-511.02 376,-511.02 376,-511.02 370,-511.02 364,-505.02 364,-499.02 364,-499.02 364,-405.86 364,-405.86 364,-399.86 370,-393.86 376,-393.86"/>
<text xml:space="preserve" text-anchor="middle" x="547.88" y="-491.82" font-family="Helvetica Neue" font-size="16.00" fill="#626873">2 · FAN&#45;OUT — one event, four independent jobs</text>
</g>
<g id="clust6" class="cluster">
<title>cluster_read</title>
<path fill="#eef1fe" stroke="#3565f2" stroke-width="1.9" stroke-dasharray="5,2" d="M99,-100.42C99,-100.42 923,-100.42 923,-100.42 929,-100.42 935,-106.42 935,-112.42 935,-112.42 935,-205.58 935,-205.58 935,-211.58 929,-217.58 923,-217.58 923,-217.58 99,-217.58 99,-217.58 93,-217.58 87,-211.58 87,-205.58 87,-205.58 87,-112.42 87,-112.42 87,-106.42 93,-100.42 99,-100.42"/>
<text xml:space="preserve" text-anchor="middle" x="321.88" y="-198.38" font-family="Helvetica Neue" font-size="16.00" fill="#3565f2">3 · TRUST BOUNDARY — the server decides what may be read</text>
</g>
<!-- policy&#45;&gt;object -->
<g id="edge1" class="edge">
<title>policy&#45;&gt;object</title>
<path fill="none" stroke="#a9adb6" stroke-width="1.8" d="M284.77,-585.66C301.52,-585.66 318.7,-585.66 335.52,-585.66"/>
<polygon fill="#a9adb6" stroke="#a9adb6" stroke-width="1.8" points="335.16,-588.29 342.66,-585.66 335.16,-583.04 335.16,-588.29"/>
<text xml:space="preserve" text-anchor="middle" x="315.12" y="-591.71" font-family="Helvetica Neue" font-size="11.00" fill="#626873">commit</text>
</g>
<!-- object&#45;&gt;event -->
<g id="edge2" class="edge">
<title>object&#45;&gt;event</title>
<path fill="none" stroke="#a9adb6" stroke-width="1.8" d="M596.45,-585.66C622.39,-585.66 649.53,-585.66 674.87,-585.66"/>
<polygon fill="#a9adb6" stroke="#a9adb6" stroke-width="1.8" points="674.64,-588.29 682.14,-585.66 674.64,-583.04 674.64,-588.29"/>
<text xml:space="preserve" text-anchor="middle" x="640.94" y="-591.71" font-family="Helvetica Neue" font-size="11.00" fill="#626873">change event</text>
</g>
<!-- event&#45;&gt;gState -->
<g id="edge6" class="edge">
<title>event&#45;&gt;gState</title>
<path fill="none" stroke="#a9adb6" stroke-width="1.8" d="M702.07,-555.79C668.08,-543.16 628.67,-527.48 594,-511.02 570.39,-499.81 545.21,-485.86 523.68,-473.27"/>
<polygon fill="#a9adb6" stroke="#a9adb6" stroke-width="1.8" points="525.14,-471.09 517.35,-469.54 522.48,-475.61 525.14,-471.09"/>
</g>
<!-- event&#45;&gt;gIndex -->
<g id="edge7" class="edge">
<title>event&#45;&gt;gIndex</title>
<path fill="none" stroke="#a9adb6" stroke-width="1.8" d="M769.59,-556.02C757.33,-533.24 740.09,-501.2 726.81,-476.51"/>
<polygon fill="#a9adb6" stroke="#a9adb6" stroke-width="1.8" points="729.27,-475.54 723.4,-470.18 724.65,-478.03 729.27,-475.54"/>
</g>
<!-- event&#45;&gt;gAudit -->
<g id="edge8" class="edge">
<title>event&#45;&gt;gAudit</title>
<path fill="none" stroke="#a9adb6" stroke-width="1.8" d="M815.03,-556.02C839.47,-532.72 874.06,-499.72 900.17,-474.82"/>
<polygon fill="#a9adb6" stroke="#a9adb6" stroke-width="1.8" points="901.7,-476.98 905.32,-469.91 898.08,-473.18 901.7,-476.98"/>
</g>
<!-- event&#45;&gt;gNotify -->
<g id="edge9" class="edge">
<title>event&#45;&gt;gNotify</title>
<path fill="none" stroke="#a9adb6" stroke-width="1.8" d="M884.96,-561.76C930.62,-549.54 984.71,-532.54 1031,-511.02 1052.97,-500.81 1075.65,-486.65 1094.59,-473.64"/>
<polygon fill="#a9adb6" stroke="#a9adb6" stroke-width="1.8" points="1095.85,-475.95 1100.5,-469.51 1092.85,-471.65 1095.85,-475.95"/>
</g>
<!-- gState&#45;&gt;gIndex -->
<!-- gState&#45;&gt;facts -->
<g id="edge13" class="edge">
<title>gState&#45;&gt;facts</title>
<path fill="none" stroke="#a9adb6" stroke-width="1.8" d="M469,-409.38C469,-393.61 469,-373.51 469,-355.22"/>
<polygon fill="#a9adb6" stroke="#a9adb6" stroke-width="1.8" points="471.63,-355.22 469,-347.72 466.38,-355.22 471.63,-355.22"/>
</g>
<!-- gIndex&#45;&gt;gAudit -->
<!-- gIndex&#45;&gt;vectors -->
<g id="edge14" class="edge">
<title>gIndex&#45;&gt;vectors</title>
<path fill="none" stroke="#a9adb6" stroke-width="1.8" d="M706.36,-409.38C706,-393.53 705.54,-373.32 705.12,-354.97"/>
<polygon fill="#a9adb6" stroke="#a9adb6" stroke-width="1.8" points="707.75,-355.16 704.95,-347.72 702.5,-355.28 707.75,-355.16"/>
<text xml:space="preserve" text-anchor="middle" x="749.64" y="-373.41" font-family="Helvetica Neue" font-size="11.00" fill="#626873">commit active set</text>
</g>
<!-- gIndex&#45;&gt;dlq -->
<g id="edge15" class="edge">
<title>gIndex&#45;&gt;dlq</title>
<path fill="none" stroke="#a33d3d" stroke-width="1.8" stroke-dasharray="5,2" d="M761.37,-409.22C800.87,-388.54 854.42,-360.49 895.82,-338.81"/>
<polygon fill="#a33d3d" stroke="#a33d3d" stroke-width="1.8" points="896.89,-341.21 902.31,-335.41 894.45,-336.56 896.89,-341.21"/>
<text xml:space="preserve" text-anchor="middle" x="879.5" y="-373.41" font-family="Helvetica Neue" font-size="11.00" fill="#a33d3d">stale · unparseable</text>
</g>
<!-- gAudit&#45;&gt;gNotify -->
<!-- client&#45;&gt;facts -->
<!-- client&#45;&gt;mcp -->
<g id="edge20" class="edge">
<title>client&#45;&gt;mcp</title>
<path fill="none" stroke="#3565f2" stroke-width="2.1" d="M212,-275.2C212,-250.01 212,-213.04 212,-185.14"/>
<polygon fill="#3565f2" stroke="#3565f2" stroke-width="2.1" points="214.63,-185.23 212,-177.73 209.38,-185.23 214.63,-185.23"/>
<text xml:space="preserve" text-anchor="middle" x="246.5" y="-228.63" font-family="Helvetica Neue" font-size="11.00" fill="#3565f2">typed tool call</text>
</g>
<!-- facts&#45;&gt;vectors -->
<!-- facts&#45;&gt;retrieve -->
<g id="edge18" class="edge">
<title>facts&#45;&gt;retrieve</title>
<path fill="none" stroke="#6f4fc3" stroke-width="2.1" d="M474,-264.39C477.07,-240.22 480.98,-209.37 484.05,-185.25"/>
<polygon fill="#6f4fc3" stroke="#6f4fc3" stroke-width="2.1" points="486.65,-185.62 484.99,-177.85 481.44,-184.96 486.65,-185.62"/>
<text xml:space="preserve" text-anchor="middle" x="517.78" y="-228.63" font-family="Helvetica Neue" font-size="11.00" fill="#6f4fc3">structured state</text>
</g>
<!-- vectors&#45;&gt;dlq -->
<!-- vectors&#45;&gt;retrieve -->
<g id="edge19" class="edge">
<title>vectors&#45;&gt;retrieve</title>
<path fill="none" stroke="#6f4fc3" stroke-width="2.1" d="M650.3,-264.39C615.21,-238.69 569.83,-205.45 536.14,-180.78"/>
<polygon fill="#6f4fc3" stroke="#6f4fc3" stroke-width="2.1" points="538.01,-178.89 530.4,-176.58 534.9,-183.12 538.01,-178.89"/>
<text xml:space="preserve" text-anchor="middle" x="655.5" y="-228.63" font-family="Helvetica Neue" font-size="11.00" fill="#6f4fc3">semantic evidence</text>
</g>
<!-- mcp&#45;&gt;retrieve -->
<g id="edge16" class="edge">
<title>mcp&#45;&gt;retrieve</title>
<path fill="none" stroke="#a9adb6" stroke-width="1.8" d="M321.56,-145.25C333.86,-145.25 346.16,-145.25 358.46,-145.25"/>
<polygon fill="#a9adb6" stroke="#a9adb6" stroke-width="1.8" points="358.1,-147.88 365.6,-145.25 358.1,-142.63 358.1,-147.88"/>
</g>
<!-- retrieve&#45;&gt;answer -->
<g id="edge17" class="edge">
<title>retrieve&#45;&gt;answer</title>
<path fill="none" stroke="#a9adb6" stroke-width="1.8" d="M609.59,-145.25C621.75,-145.25 633.91,-145.25 646.07,-145.25"/>
<polygon fill="#a9adb6" stroke="#a9adb6" stroke-width="1.8" points="646.06,-147.88 653.56,-145.25 646.06,-142.63 646.06,-147.88"/>
</g>
<!-- answer&#45;&gt;client -->
<g id="edge21" class="edge">
<title>answer&#45;&gt;client</title>
<path fill="none" stroke="#3565f2" stroke-width="2.1" stroke-dasharray="5,2" d="M772.01,-174.72C758.14,-196.44 735.9,-224.95 708,-239.08 642.18,-272.43 449.91,-253.75 377,-265.08 362.83,-267.28 348.07,-270.05 333.46,-273.08"/>
<polygon fill="#3565f2" stroke="#3565f2" stroke-width="2.1" points="333.28,-270.44 326.49,-274.56 334.37,-275.57 333.28,-270.44"/>
<text xml:space="preserve" text-anchor="middle" x="516.72" y="-249.84" font-family="Helvetica Neue" font-size="11.00" fill="#3565f2">cited answer</text>
</g>
<!-- answer&#45;&gt;rule -->
<!-- policy -->
<g id="node1" class="node">
<title>policy</title>
<path fill="#ffffff" stroke="#d9dcd8" stroke-width="1.4" d="M272.27,-614.49C272.27,-614.49 35.73,-614.49 35.73,-614.49 29.73,-614.49 23.72,-608.49 23.72,-602.49 23.72,-602.49 23.72,-568.83 23.72,-568.83 23.72,-562.83 29.72,-556.83 35.72,-556.83 35.72,-556.83 272.27,-556.83 272.27,-556.83 278.27,-556.83 284.27,-562.83 284.27,-568.83 284.27,-568.83 284.27,-602.49 284.27,-602.49 284.27,-608.49 278.27,-614.49 272.27,-614.49"/>
<text xml:space="preserve" text-anchor="middle" x="154" y="-590.16" font-family="Helvetica Neue" font-size="15.00" fill="#16181d">Policy system</text>
<text xml:space="preserve" text-anchor="middle" x="154" y="-571.41" font-family="Helvetica Neue" font-size="15.00" fill="#16181d">Issue · renew · endorse · withdraw</text>
</g>
<!-- object -->
<g id="node2" class="node">
<title>object</title>
<path fill="#f1edfb" stroke="#dcd2f4" stroke-width="1.4" d="M596.02,-618.1C596.02,-622.07 539.99,-625.31 471,-625.31 402.01,-625.31 345.98,-622.07 345.98,-618.1 345.98,-618.1 345.98,-553.23 345.98,-553.23 345.98,-549.25 402.01,-546.02 471,-546.02 539.99,-546.02 596.02,-549.25 596.02,-553.23 596.02,-553.23 596.02,-618.1 596.02,-618.1"/>
<path fill="none" stroke="#dcd2f4" stroke-width="1.4" d="M596.02,-618.1C596.02,-614.12 539.99,-610.89 471,-610.89 402.01,-610.89 345.98,-614.12 345.98,-618.1"/>
<text xml:space="preserve" text-anchor="middle" x="471" y="-590.16" font-family="Helvetica Neue" font-size="15.00" fill="#6f4fc3">Versioned object storage</text>
<text xml:space="preserve" text-anchor="middle" x="471" y="-571.41" font-family="Helvetica Neue" font-size="15.00" fill="#6f4fc3">Heavy document + exact version</text>
</g>
<!-- event -->
<g id="node3" class="node">
<title>event</title>
<polygon fill="#e7f3f0" stroke="#0e7f66" stroke-width="2.2" points="884.15,-614.49 689.85,-614.49 685.85,-610.49 685.85,-556.83 880.15,-556.83 884.15,-560.83 884.15,-614.49"/>
<polyline fill="none" stroke="#0e7f66" stroke-width="2.2" points="880.15,-610.49 685.85,-610.49"/>
<polyline fill="none" stroke="#0e7f66" stroke-width="2.2" points="880.15,-610.49 880.15,-556.83"/>
<polyline fill="none" stroke="#0e7f66" stroke-width="2.2" points="880.15,-610.49 884.15,-614.49"/>
<text xml:space="preserve" text-anchor="middle" x="785" y="-590.16" font-family="Helvetica Neue" font-size="15.00" fill="#0e7f66">policy&#45;document&#45;events</text>
<text xml:space="preserve" text-anchor="middle" x="785" y="-571.41" font-family="Helvetica Neue" font-size="15.00" fill="#0e7f66">Key = policy_id · retained</text>
</g>
<!-- gState -->
<g id="node4" class="node">
<title>gState</title>
<path fill="#ffffff" stroke="#d9dcd8" stroke-width="1.4" d="M546.4,-467.52C546.4,-467.52 391.6,-467.52 391.6,-467.52 385.6,-467.52 379.6,-461.52 379.6,-455.52 379.6,-455.52 379.6,-421.86 379.6,-421.86 379.6,-415.86 385.6,-409.86 391.6,-409.86 391.6,-409.86 546.4,-409.86 546.4,-409.86 552.4,-409.86 558.4,-415.86 558.4,-421.86 558.4,-421.86 558.4,-455.52 558.4,-455.52 558.4,-461.52 552.4,-467.52 546.4,-467.52"/>
<text xml:space="preserve" text-anchor="middle" x="469" y="-443.19" font-family="Helvetica Neue" font-size="15.00" fill="#16181d">Policy&#45;state group</text>
<text xml:space="preserve" text-anchor="middle" x="469" y="-424.44" font-family="Helvetica Neue" font-size="15.00" fill="#16181d">Current status + dates</text>
</g>
<!-- gIndex -->
<g id="node5" class="node">
<title>gIndex</title>
<path fill="#ffffff" stroke="#d9dcd8" stroke-width="1.4" d="M795.65,-467.52C795.65,-467.52 618.35,-467.52 618.35,-467.52 612.35,-467.52 606.35,-461.52 606.35,-455.52 606.35,-455.52 606.35,-421.86 606.35,-421.86 606.35,-415.86 612.35,-409.86 618.35,-409.86 618.35,-409.86 795.65,-409.86 795.65,-409.86 801.65,-409.86 807.65,-415.86 807.65,-421.86 807.65,-421.86 807.65,-455.52 807.65,-455.52 807.65,-461.52 801.65,-467.52 795.65,-467.52"/>
<text xml:space="preserve" text-anchor="middle" x="707" y="-443.19" font-family="Helvetica Neue" font-size="15.00" fill="#16181d">Indexing group</text>
<text xml:space="preserve" text-anchor="middle" x="707" y="-424.44" font-family="Helvetica Neue" font-size="15.00" fill="#16181d">Stage → verify → commit</text>
</g>
<!-- gAudit -->
<g id="node6" class="node">
<title>gAudit</title>
<path fill="#ffffff" stroke="#d9dcd8" stroke-width="1.4" d="M1007.27,-467.52C1007.27,-467.52 866.73,-467.52 866.73,-467.52 860.73,-467.52 854.73,-461.52 854.73,-455.52 854.73,-455.52 854.73,-421.86 854.73,-421.86 854.73,-415.86 860.73,-409.86 866.73,-409.86 866.73,-409.86 1007.27,-409.86 1007.27,-409.86 1013.27,-409.86 1019.27,-415.86 1019.27,-421.86 1019.27,-421.86 1019.27,-455.52 1019.27,-455.52 1019.27,-461.52 1013.27,-467.52 1007.27,-467.52"/>
<text xml:space="preserve" text-anchor="middle" x="937" y="-443.19" font-family="Helvetica Neue" font-size="15.00" fill="#16181d">Audit group</text>
<text xml:space="preserve" text-anchor="middle" x="937" y="-424.44" font-family="Helvetica Neue" font-size="15.00" fill="#16181d">Immutable evidence</text>
</g>
<!-- gNotify -->
<g id="node7" class="node">
<title>gNotify</title>
<path fill="#ffffff" stroke="#d9dcd8" stroke-width="1.4" d="M1200.9,-467.52C1200.9,-467.52 1079.1,-467.52 1079.1,-467.52 1073.1,-467.52 1067.1,-461.52 1067.1,-455.52 1067.1,-455.52 1067.1,-421.86 1067.1,-421.86 1067.1,-415.86 1073.1,-409.86 1079.1,-409.86 1079.1,-409.86 1200.9,-409.86 1200.9,-409.86 1206.9,-409.86 1212.9,-415.86 1212.9,-421.86 1212.9,-421.86 1212.9,-455.52 1212.9,-455.52 1212.9,-461.52 1206.9,-467.52 1200.9,-467.52"/>
<text xml:space="preserve" text-anchor="middle" x="1140" y="-443.19" font-family="Helvetica Neue" font-size="15.00" fill="#16181d">Notification group</text>
<text xml:space="preserve" text-anchor="middle" x="1140" y="-424.44" font-family="Helvetica Neue" font-size="15.00" fill="#16181d">Tell the customer</text>
</g>
<!-- client -->
<g id="node8" class="node">
<title>client</title>
<path fill="#ffffff" stroke="#d9dcd8" stroke-width="1.4" d="M329.9,-333.55C329.9,-333.55 94.1,-333.55 94.1,-333.55 88.1,-333.55 82.1,-327.55 82.1,-321.55 82.1,-321.55 82.1,-287.89 82.1,-287.89 82.1,-281.89 88.1,-275.89 94.1,-275.89 94.1,-275.89 329.9,-275.89 329.9,-275.89 335.9,-275.89 341.9,-281.89 341.9,-287.89 341.9,-287.89 341.9,-321.55 341.9,-321.55 341.9,-327.55 335.9,-333.55 329.9,-333.55"/>
<text xml:space="preserve" text-anchor="middle" x="212" y="-309.22" font-family="Helvetica Neue" font-size="15.00" fill="#16181d">Customer AI client</text>
<text xml:space="preserve" text-anchor="middle" x="212" y="-290.47" font-family="Helvetica Neue" font-size="15.00" fill="#16181d">Holds a token, not a database role</text>
</g>
<!-- facts -->
<g id="node9" class="node">
<title>facts</title>
<path fill="#f1edfb" stroke="#dcd2f4" stroke-width="1.4" d="M548.65,-337.15C548.65,-341.13 512.95,-344.36 469,-344.36 425.05,-344.36 389.35,-341.13 389.35,-337.15 389.35,-337.15 389.35,-272.29 389.35,-272.29 389.35,-268.31 425.05,-265.08 469,-265.08 512.95,-265.08 548.65,-268.31 548.65,-272.29 548.65,-272.29 548.65,-337.15 548.65,-337.15"/>
<path fill="none" stroke="#dcd2f4" stroke-width="1.4" d="M548.65,-337.15C548.65,-333.18 512.95,-329.95 469,-329.95 425.05,-329.95 389.35,-333.18 389.35,-337.15"/>
<text xml:space="preserve" text-anchor="middle" x="469" y="-309.22" font-family="Helvetica Neue" font-size="15.00" fill="#6f4fc3">Current policy state</text>
<text xml:space="preserve" text-anchor="middle" x="469" y="-290.47" font-family="Helvetica Neue" font-size="15.00" fill="#6f4fc3">Structured facts</text>
</g>
<!-- vectors -->
<g id="node10" class="node">
<title>vectors</title>
<path fill="#f1edfb" stroke="#dcd2f4" stroke-width="1.4" d="M811.4,-337.15C811.4,-341.13 763.26,-344.36 704,-344.36 644.74,-344.36 596.6,-341.13 596.6,-337.15 596.6,-337.15 596.6,-272.29 596.6,-272.29 596.6,-268.31 644.74,-265.08 704,-265.08 763.26,-265.08 811.4,-268.31 811.4,-272.29 811.4,-272.29 811.4,-337.15 811.4,-337.15"/>
<path fill="none" stroke="#dcd2f4" stroke-width="1.4" d="M811.4,-337.15C811.4,-333.18 763.26,-329.95 704,-329.95 644.74,-329.95 596.6,-333.18 596.6,-337.15"/>
<text xml:space="preserve" text-anchor="middle" x="704" y="-309.22" font-family="Helvetica Neue" font-size="15.00" fill="#6f4fc3">Active document set</text>
<text xml:space="preserve" text-anchor="middle" x="704" y="-290.47" font-family="Helvetica Neue" font-size="15.00" fill="#6f4fc3">Versioned chunks + vectors</text>
</g>
<!-- dlq -->
<g id="node11" class="node">
<title>dlq</title>
<path fill="#f9eaea" stroke="#edc7c7" stroke-width="1.4" d="M1047.28,-333.55C1047.28,-333.55 870.73,-333.55 870.73,-333.55 864.73,-333.55 858.73,-327.55 858.73,-321.55 858.73,-321.55 858.73,-287.89 858.73,-287.89 858.73,-281.89 864.73,-275.89 870.73,-275.89 870.73,-275.89 1047.28,-275.89 1047.28,-275.89 1053.28,-275.89 1059.28,-281.89 1059.28,-287.89 1059.28,-287.89 1059.28,-321.55 1059.28,-321.55 1059.28,-327.55 1053.28,-333.55 1047.28,-333.55"/>
<text xml:space="preserve" text-anchor="middle" x="959" y="-309.22" font-family="Helvetica Neue" font-size="15.00" fill="#a33d3d">Quarantine / DLQ</text>
<text xml:space="preserve" text-anchor="middle" x="959" y="-290.47" font-family="Helvetica Neue" font-size="15.00" fill="#a33d3d">Invalid · retries exhausted</text>
</g>
<!-- mcp -->
<g id="node12" class="node">
<title>mcp</title>
<path fill="#eef1fe" stroke="#ccd7fb" stroke-width="1.4" d="M308.9,-174.08C308.9,-174.08 115.1,-174.08 115.1,-174.08 109.1,-174.08 103.1,-168.08 103.1,-162.08 103.1,-162.08 103.1,-128.42 103.1,-128.42 103.1,-122.42 109.1,-116.42 115.1,-116.42 115.1,-116.42 308.9,-116.42 308.9,-116.42 314.9,-116.42 320.9,-122.42 320.9,-128.42 320.9,-128.42 320.9,-162.08 320.9,-162.08 320.9,-168.08 314.9,-174.08 308.9,-174.08"/>
<text xml:space="preserve" text-anchor="middle" x="212" y="-149.75" font-family="Helvetica Neue" font-size="15.00" fill="#3565f2">MCP server</text>
<text xml:space="preserve" text-anchor="middle" x="212" y="-131" font-family="Helvetica Neue" font-size="15.00" fill="#3565f2">Verify token → derive scope</text>
</g>
<!-- retrieve -->
<g id="node13" class="node">
<title>retrieve</title>
<path fill="#eef1fe" stroke="#ccd7fb" stroke-width="1.4" d="M597.15,-174.08C597.15,-174.08 380.85,-174.08 380.85,-174.08 374.85,-174.08 368.85,-168.08 368.85,-162.08 368.85,-162.08 368.85,-128.42 368.85,-128.42 368.85,-122.42 374.85,-116.42 380.85,-116.42 380.85,-116.42 597.15,-116.42 597.15,-116.42 603.15,-116.42 609.15,-122.42 609.15,-128.42 609.15,-128.42 609.15,-162.08 609.15,-162.08 609.15,-168.08 603.15,-174.08 597.15,-174.08"/>
<text xml:space="preserve" text-anchor="middle" x="489" y="-149.75" font-family="Helvetica Neue" font-size="15.00" fill="#3565f2">Authorized retrieval</text>
<text xml:space="preserve" text-anchor="middle" x="489" y="-131" font-family="Helvetica Neue" font-size="15.00" fill="#3565f2">Tenant + policy + active version</text>
</g>
<!-- answer -->
<g id="node14" class="node">
<title>answer</title>
<path fill="#ffffff" stroke="#d9dcd8" stroke-width="1.4" d="M907.02,-174.08C907.02,-174.08 668.98,-174.08 668.98,-174.08 662.98,-174.08 656.98,-168.08 656.98,-162.08 656.98,-162.08 656.98,-128.42 656.98,-128.42 656.98,-122.42 662.98,-116.42 668.98,-116.42 668.98,-116.42 907.02,-116.42 907.02,-116.42 913.02,-116.42 919.02,-122.42 919.02,-128.42 919.02,-128.42 919.02,-162.08 919.02,-162.08 919.02,-168.08 913.02,-174.08 907.02,-174.08"/>
<text xml:space="preserve" text-anchor="middle" x="788" y="-149.75" font-family="Helvetica Neue" font-size="15.00" fill="#16181d">Grounded answer</text>
<text xml:space="preserve" text-anchor="middle" x="788" y="-131" font-family="Helvetica Neue" font-size="15.00" fill="#16181d">Source · effective date · escalation</text>
</g>
<!-- rule -->
<g id="node15" class="node">
<title>rule</title>
<polygon fill="#fff3d9" stroke="#eeda9f" stroke-width="1.4" points="1018.65,-63.42 551.35,-63.42 551.35,0 1024.65,0 1024.65,-57.42 1018.65,-63.42"/>
<polyline fill="none" stroke="#eeda9f" stroke-width="1.4" points="1018.65,-63.42 1018.65,-57.42"/>
<polyline fill="none" stroke="#eeda9f" stroke-width="1.4" points="1024.65,-57.42 1018.65,-57.42"/>
<text xml:space="preserve" text-anchor="middle" x="788" y="-36.21" font-family="Helvetica Neue" font-size="15.00" fill="#8a5a06">Kafka delivers the trigger. The consumer owns the switch.</text>
<text xml:space="preserve" text-anchor="middle" x="788" y="-17.46" font-family="Helvetica Neue" font-size="15.00" fill="#8a5a06">The server, never the model, decides what a customer may read.</text>
</g>
</g>
</svg>
